<svg xmlns="http://www.w3.org/2000/svg" viewBox="0 0 600 160" width="100%" height="100%">
  <defs>
    <linearGradient id="blueGrad" x1="0%" y1="0%" x2="100%" y2="100%">
      <stop offset="0%" stop-color="#2563EB" />
      <stop offset="100%" stop-color="#1E3A8A" />
    </linearGradient>
    
    <linearGradient id="greenGrad" x1="0%" y1="0%" x2="100%" y2="100%">
      <stop offset="0%" stop-color="#34D399" />
      <stop offset="100%" stop-color="#059669" />
    </linearGradient>
    
    <filter id="shadow" x="-10%" y="-10%" width="120%" height="120%">
      <feDropShadow dx="0" dy="4" stdDeviation="6" flood-color="#000000" flood-opacity="0.08"/>
    </filter>
  </defs>

  <g transform="translate(40, 32)" filter="url(#shadow)">
    <path d="M 15 0
             H 65
             L 90 25
             V 85
             C 90 90.5 85.5 95 80 95
             H 15
             C 9.5 95 5 90.5 5 85
             V 10
             C 5 4.5 9.5 0 15 0 Z"
          fill="#FFFFFF" stroke="url(#blueGrad)" stroke-width="5" stroke-linejoin="round"/>

    <path d="M 65 0 V 20 C 65 22.76 67.24 25 70 25 H 90"
          fill="none" stroke="url(#blueGrad)" stroke-width="5" stroke-linecap="round" stroke-linejoin="round"/>

    <line x1="25" y1="35" x2="65" y2="35" stroke="#CBD5E1" stroke-width="4" stroke-linecap="round"/>
    <line x1="25" y1="50" x2="70" y2="50" stroke="#CBD5E1" stroke-width="4" stroke-linecap="round"/>
    <line x1="25" y1="65" x2="50" y2="65" stroke="#CBD5E1" stroke-width="4" stroke-linecap="round"/>

    <g transform="translate(60, 45)">
      <circle cx="20" cy="20" r="26" fill="url(#greenGrad)" stroke="#FFFFFF" stroke-width="4"/>
      <path d="M 16 8 H 24 V 16 H 32 V 24 H 24 V 32 H 16 V 24 H 8 V 16 H 16 Z" fill="#FFFFFF"/>
    </g>
  </g>

  <g transform="translate(160, 92)">
    <text x="0" y="0" font-family="'Inter', 'Segoe UI', -apple-system, sans-serif" font-size="52" font-weight="800" fill="#0F172A" letter-spacing="-1.5">
      Discharge<tspan fill="url(#greenGrad)">+</tspan>
    </text>
    
    <text x="5" y="30" font-family="'Inter', 'Segoe UI', -apple-system, sans-serif" font-size="15" font-weight="700" fill="#64748B" letter-spacing="2.5">
      MCP SERVER
    </text>
  </g>
</svg>
